<svg width="8" height="12" viewBox="0 0 8 12" fill="none" xmlns="http://www.w3.org/2000/svg">
<path d="M7.60673 6.09432C7.52257 5.93832 7.36254 5.84107 7.18849 5.84107H4.47819L4.47819 0.48953C4.47819 0.219309 4.26397 -3.57628e-07 4.00001 -3.57628e-07C3.73606 -3.57628e-07 3.52184 0.219309 3.52184 0.48953L3.52184 5.84107H0.81154C0.636847 5.84107 0.476817 5.93832 0.393296 6.09432C0.308499 6.25031 0.314237 6.4409 0.406685 6.59168L3.59516 11.7716C3.68314 11.9138 3.83552 12 4.00001 12C4.16451 12 4.31689 11.9138 4.40487 11.7716L7.59334 6.59168C7.6418 6.51205 7.66666 6.42132 7.66666 6.3306C7.66666 6.24966 7.64626 6.16807 7.60673 6.09432" fill="#FA2256"/>
</svg>
