<svg width="18" height="18" viewBox="0 0 18 18" fill="none" xmlns="http://www.w3.org/2000/svg">
<rect x="0.5" y="0.5" width="17" height="17" rx="2.5" stroke="#246CF9"/>
<path d="M6.02158 12.1054L3.31081 9.32204C3.23992 9.24837 3.1555 9.18988 3.06243 9.14996C2.96937 9.11004 2.86951 9.08949 2.76865 9.08949C2.66779 9.08949 2.56793 9.11004 2.47487 9.14996C2.3818 9.18988 2.29738 9.24837 2.2265 9.32204C2.15475 9.39483 2.09778 9.48151 2.0589 9.57706C2.02002 9.67262 2 9.77515 2 9.87871C2 9.98227 2.02002 10.0848 2.0589 10.1804C2.09778 10.2759 2.15475 10.3626 2.2265 10.4354L5.47168 13.7674C5.77374 14.0775 6.26168 14.0775 6.56373 13.7674L14.7735 5.34588C14.8453 5.2731 14.9022 5.18642 14.9411 5.09086C14.98 4.99531 15 4.89278 15 4.78922C15 4.68566 14.98 4.58313 14.9411 4.48758C14.9022 4.39202 14.8453 4.30534 14.7735 4.23256C14.7026 4.15889 14.6182 4.1004 14.5251 4.06048C14.4321 4.02056 14.3322 4 14.2313 4C14.1305 4 14.0306 4.02056 13.9376 4.06048C13.8445 4.1004 13.7601 4.15889 13.6892 4.23256L6.02158 12.1054Z" fill="#246CF9"/>
</svg>
