<svg width="150" height="24" viewBox="0 0 150 24" fill="none" xmlns="http://www.w3.org/2000/svg">
<path d="M5.2228 8.63959L0 5.73307L8.86482 0.434296C9.83638 -0.146436 11.0537 -0.14464 12.0235 0.438958L19.5366 4.96009C20.4453 5.50693 21 6.48303 21 7.53531V15.7356C21 16.8076 20.4245 17.799 19.4885 18.3391L12.068 22.6217C11.1309 23.1625 9.97384 23.1695 9.03013 22.6401L0 17.5745V11.6538L10.4456 17.5745L15.6684 14.5603V8.63959L10.4456 5.73307L5.2228 8.63959Z" fill="white"/>
<path d="M5.22388 14.6133V8.63959L10.4467 5.73306L15.6695 8.63959V14.5603L10.4467 17.5745L5.22388 14.6133Z" fill="#5816BE"/>
<path d="M5.22388 8.6395L10.4467 11.6537V17.5744L5.22388 14.6103V8.6395Z" fill="#360F80"/>
<path d="M10.4467 11.6538L15.6695 8.63959L10.4467 5.73306L5.22388 8.63959L10.4467 11.6538Z" fill="#7D1AFF"/>
<path d="M37.106 18.17C36.1993 18.17 35.355 18.0227 34.573 17.728C33.8023 17.422 33.128 16.997 32.55 16.453C31.9833 15.8977 31.5413 15.246 31.224 14.498C30.9067 13.75 30.748 12.934 30.748 12.05C30.748 11.166 30.9067 10.35 31.224 9.60199C31.5413 8.85399 31.989 8.20799 32.567 7.66399C33.145 7.10866 33.8193 6.68366 34.59 6.38899C35.3607 6.08299 36.205 5.92999 37.123 5.92999C38.0977 5.92999 38.9873 6.09999 39.792 6.43999C40.5967 6.76866 41.2767 7.26166 41.832 7.91899L40.404 9.26199C39.9733 8.79733 39.4917 8.45166 38.959 8.22499C38.4263 7.98699 37.8483 7.86799 37.225 7.86799C36.6017 7.86799 36.0293 7.96999 35.508 8.17399C34.998 8.37799 34.5503 8.66699 34.165 9.04099C33.791 9.41499 33.4963 9.85699 33.281 10.367C33.077 10.877 32.975 11.438 32.975 12.05C32.975 12.662 33.077 13.223 33.281 13.733C33.4963 14.243 33.791 14.685 34.165 15.059C34.5503 15.433 34.998 15.722 35.508 15.926C36.0293 16.13 36.6017 16.232 37.225 16.232C37.8483 16.232 38.4263 16.1187 38.959 15.892C39.4917 15.654 39.9733 15.297 40.404 14.821L41.832 16.181C41.2767 16.827 40.5967 17.32 39.792 17.66C38.9873 18 38.092 18.17 37.106 18.17Z" fill="white"/>
<path d="M43.4055 18V8.92199H45.4285V11.421L45.1905 10.69C45.4625 10.078 45.8875 9.61333 46.4655 9.29599C47.0549 8.97866 47.7859 8.81999 48.6585 8.81999V10.843C48.5679 10.8203 48.4829 10.809 48.4035 10.809C48.3242 10.7977 48.2449 10.792 48.1655 10.792C47.3609 10.792 46.7205 11.03 46.2445 11.506C45.7685 11.9707 45.5305 12.6677 45.5305 13.597V18H43.4055Z" fill="white"/>
<path d="M51.2012 21.417C50.7592 21.417 50.3172 21.3433 49.8752 21.196C49.4332 21.0487 49.0649 20.8447 48.7702 20.584L49.6202 19.02C49.8356 19.2127 50.0792 19.3657 50.3512 19.479C50.6232 19.5923 50.9009 19.649 51.1842 19.649C51.5696 19.649 51.8812 19.5527 52.1192 19.36C52.3572 19.1673 52.5782 18.8443 52.7822 18.391L53.3092 17.201L53.4792 16.946L56.9132 8.92199H58.9532L54.7032 18.731C54.4199 19.411 54.1026 19.9493 53.7512 20.346C53.4112 20.7427 53.0259 21.0203 52.5952 21.179C52.1759 21.3377 51.7112 21.417 51.2012 21.417ZM53.0712 18.323L48.9742 8.92199H51.1842L54.5162 16.759L53.0712 18.323Z" fill="white"/>
<path d="M64.9734 18.119C64.2367 18.119 63.5624 17.949 62.9504 17.609C62.3497 17.269 61.868 16.759 61.5054 16.079C61.154 15.3877 60.9784 14.515 60.9784 13.461C60.9784 12.3957 61.1484 11.523 61.4884 10.843C61.8397 10.163 62.3157 9.65866 62.9164 9.32999C63.517 8.98999 64.2027 8.81999 64.9734 8.81999C65.8687 8.81999 66.6564 9.01266 67.3364 9.39799C68.0277 9.78333 68.5717 10.3217 68.9684 11.013C69.3764 11.7043 69.5804 12.5203 69.5804 13.461C69.5804 14.4017 69.3764 15.2233 68.9684 15.926C68.5717 16.6173 68.0277 17.1557 67.3364 17.541C66.6564 17.9263 65.8687 18.119 64.9734 18.119ZM59.9414 21.298V8.92199H61.9644V11.064L61.8964 13.478L62.0664 15.892V21.298H59.9414ZM64.7354 16.3C65.2454 16.3 65.6987 16.1867 66.0954 15.96C66.5034 15.7333 66.8264 15.4047 67.0644 14.974C67.3024 14.5433 67.4214 14.039 67.4214 13.461C67.4214 12.8717 67.3024 12.3673 67.0644 11.948C66.8264 11.5173 66.5034 11.1887 66.0954 10.962C65.6987 10.7353 65.2454 10.622 64.7354 10.622C64.2254 10.622 63.7664 10.7353 63.3584 10.962C62.9504 11.1887 62.6274 11.5173 62.3894 11.948C62.1514 12.3673 62.0324 12.8717 62.0324 13.461C62.0324 14.039 62.1514 14.5433 62.3894 14.974C62.6274 15.4047 62.9504 15.7333 63.3584 15.96C63.7664 16.1867 64.2254 16.3 64.7354 16.3Z" fill="white"/>
<path d="M74.6727 18.119C73.6753 18.119 72.9047 17.864 72.3607 17.354C71.8167 16.8327 71.5447 16.0677 71.5447 15.059V6.91599H73.6697V15.008C73.6697 15.4387 73.7773 15.773 73.9927 16.011C74.2193 16.249 74.531 16.368 74.9277 16.368C75.4037 16.368 75.8003 16.2433 76.1177 15.994L76.7127 17.507C76.4633 17.711 76.1573 17.864 75.7947 17.966C75.432 18.068 75.058 18.119 74.6727 18.119ZM70.0487 10.69V8.98999H76.1007V10.69H70.0487Z" fill="white"/>
<path d="M81.9019 18.119C80.9726 18.119 80.1452 17.9207 79.4199 17.524C78.6946 17.116 78.1222 16.5607 77.7029 15.858C77.2836 15.1553 77.0739 14.3563 77.0739 13.461C77.0739 12.5543 77.2836 11.7553 77.7029 11.064C78.1222 10.3613 78.6946 9.81166 79.4199 9.41499C80.1452 9.01833 80.9726 8.81999 81.9019 8.81999C82.8426 8.81999 83.6756 9.01833 84.4009 9.41499C85.1376 9.81166 85.7099 10.3557 86.1179 11.047C86.5373 11.7383 86.7469 12.543 86.7469 13.461C86.7469 14.3563 86.5373 15.1553 86.1179 15.858C85.7099 16.5607 85.1376 17.116 84.4009 17.524C83.6756 17.9207 82.8426 18.119 81.9019 18.119ZM81.9019 16.3C82.4232 16.3 82.8879 16.1867 83.2959 15.96C83.7039 15.7333 84.0212 15.4047 84.2479 14.974C84.4859 14.5433 84.6049 14.039 84.6049 13.461C84.6049 12.8717 84.4859 12.3673 84.2479 11.948C84.0212 11.5173 83.7039 11.1887 83.2959 10.962C82.8879 10.7353 82.4289 10.622 81.9189 10.622C81.3976 10.622 80.9329 10.7353 80.5249 10.962C80.1282 11.1887 79.8109 11.5173 79.5729 11.948C79.3349 12.3673 79.2159 12.8717 79.2159 13.461C79.2159 14.039 79.3349 14.5433 79.5729 14.974C79.8109 15.4047 80.1282 15.7333 80.5249 15.96C80.9329 16.1867 81.3919 16.3 81.9019 16.3Z" fill="white"/>
<path d="M98.5602 18.17C97.6309 18.17 96.7752 18.0227 95.9932 17.728C95.2225 17.422 94.5482 16.997 93.9702 16.453C93.3922 15.8977 92.9445 15.246 92.6272 14.498C92.3099 13.75 92.1512 12.934 92.1512 12.05C92.1512 11.166 92.3099 10.35 92.6272 9.60199C92.9445 8.85399 93.3922 8.20799 93.9702 7.66399C94.5595 7.10866 95.2452 6.68366 96.0272 6.38899C96.8092 6.08299 97.6648 5.92999 98.5942 5.92999C99.6029 5.92999 100.51 6.09433 101.314 6.42299C102.13 6.75166 102.816 7.23333 103.371 7.86799L101.977 9.22799C101.513 8.76333 101.008 8.42333 100.464 8.20799C99.9315 7.98133 99.3422 7.86799 98.6962 7.86799C98.0729 7.86799 97.4949 7.96999 96.9622 8.17399C96.4295 8.37799 95.9705 8.66699 95.5852 9.04099C95.1999 9.41499 94.8995 9.85699 94.6842 10.367C94.4802 10.877 94.3782 11.438 94.3782 12.05C94.3782 12.6507 94.4802 13.206 94.6842 13.716C94.8995 14.226 95.1999 14.6737 95.5852 15.059C95.9705 15.433 96.4239 15.722 96.9452 15.926C97.4665 16.13 98.0445 16.232 98.6792 16.232C99.2685 16.232 99.8352 16.1413 100.379 15.96C100.935 15.7673 101.462 15.45 101.96 15.008L103.218 16.657C102.595 17.1557 101.87 17.5353 101.042 17.796C100.226 18.0453 99.3989 18.17 98.5602 18.17ZM101.127 16.368V11.914H103.218V16.657L101.127 16.368Z" fill="white"/>
<path d="M109.856 18.119C108.847 18.119 107.963 17.9207 107.204 17.524C106.456 17.116 105.872 16.5607 105.453 15.858C105.045 15.1553 104.841 14.3563 104.841 13.461C104.841 12.5543 105.039 11.7553 105.436 11.064C105.844 10.3613 106.399 9.81166 107.102 9.41499C107.816 9.01833 108.626 8.81999 109.533 8.81999C110.417 8.81999 111.205 9.01266 111.896 9.39799C112.587 9.78333 113.131 10.3273 113.528 11.03C113.925 11.7327 114.123 12.56 114.123 13.512C114.123 13.6027 114.117 13.7047 114.106 13.818C114.106 13.9313 114.1 14.039 114.089 14.141H106.524V12.73H112.967L112.134 13.172C112.145 12.6507 112.038 12.1917 111.811 11.795C111.584 11.3983 111.273 11.0867 110.876 10.86C110.491 10.6333 110.043 10.52 109.533 10.52C109.012 10.52 108.553 10.6333 108.156 10.86C107.771 11.0867 107.465 11.404 107.238 11.812C107.023 12.2087 106.915 12.679 106.915 13.223V13.563C106.915 14.107 107.04 14.5887 107.289 15.008C107.538 15.4273 107.89 15.7503 108.343 15.977C108.796 16.2037 109.318 16.317 109.907 16.317C110.417 16.317 110.876 16.2377 111.284 16.079C111.692 15.9203 112.055 15.671 112.372 15.331L113.511 16.64C113.103 17.116 112.587 17.4843 111.964 17.745C111.352 17.9943 110.649 18.119 109.856 18.119Z" fill="white"/>
<path d="M120.975 8.81999C121.701 8.81999 122.347 8.96166 122.913 9.24499C123.491 9.52833 123.945 9.96466 124.273 10.554C124.602 11.132 124.766 11.88 124.766 12.798V18H122.641V13.07C122.641 12.2653 122.449 11.6647 122.063 11.268C121.689 10.8713 121.162 10.673 120.482 10.673C119.984 10.673 119.542 10.775 119.156 10.979C118.771 11.183 118.471 11.489 118.255 11.897C118.051 12.2937 117.949 12.798 117.949 13.41V18H115.824V8.92199H117.847V11.37L117.49 10.622C117.808 10.044 118.267 9.60199 118.867 9.29599C119.479 8.97866 120.182 8.81999 120.975 8.81999Z" fill="white"/>
<path d="M127.122 18V8.92199H129.247V18H127.122Z" fill="white"/>
<path d="M135.538 18.119C134.767 18.119 134.087 17.9773 133.498 17.694C132.909 17.3993 132.45 16.9573 132.121 16.368C131.792 15.7673 131.628 15.0137 131.628 14.107V8.92199H133.753V13.818C133.753 14.634 133.934 15.246 134.297 15.654C134.671 16.0507 135.198 16.249 135.878 16.249C136.377 16.249 136.807 16.147 137.17 15.943C137.544 15.739 137.833 15.433 138.037 15.025C138.252 14.617 138.36 14.1127 138.36 13.512V8.92199H140.485V18H138.462V15.552L138.819 16.3C138.513 16.8893 138.065 17.3427 137.476 17.66C136.887 17.966 136.241 18.119 135.538 18.119Z" fill="white"/>
<path d="M145.732 18.119C144.973 18.119 144.242 18.0227 143.539 17.83C142.848 17.626 142.298 17.3823 141.89 17.099L142.706 15.484C143.114 15.7447 143.602 15.96 144.168 16.13C144.735 16.3 145.302 16.385 145.868 16.385C146.537 16.385 147.019 16.2943 147.313 16.113C147.619 15.9317 147.772 15.688 147.772 15.382C147.772 15.1327 147.67 14.9457 147.466 14.821C147.262 14.685 146.996 14.583 146.667 14.515C146.339 14.447 145.97 14.3847 145.562 14.328C145.166 14.2713 144.763 14.1977 144.355 14.107C143.959 14.005 143.596 13.8633 143.267 13.682C142.939 13.4893 142.672 13.2343 142.468 12.917C142.264 12.5997 142.162 12.1803 142.162 11.659C142.162 11.081 142.327 10.5823 142.655 10.163C142.984 9.73233 143.443 9.40366 144.032 9.17699C144.633 8.93899 145.341 8.81999 146.157 8.81999C146.769 8.81999 147.387 8.88799 148.01 9.02399C148.634 9.15999 149.149 9.35266 149.557 9.60199L148.741 11.217C148.311 10.9563 147.874 10.7807 147.432 10.69C147.002 10.588 146.571 10.537 146.14 10.537C145.494 10.537 145.013 10.6333 144.695 10.826C144.389 11.0187 144.236 11.2623 144.236 11.557C144.236 11.829 144.338 12.033 144.542 12.169C144.746 12.305 145.013 12.4127 145.341 12.492C145.67 12.5713 146.033 12.6393 146.429 12.696C146.837 12.7413 147.24 12.815 147.636 12.917C148.033 13.019 148.396 13.1607 148.724 13.342C149.064 13.512 149.336 13.7557 149.54 14.073C149.744 14.3903 149.846 14.804 149.846 15.314C149.846 15.8807 149.676 16.3737 149.336 16.793C149.008 17.2123 148.537 17.541 147.925 17.779C147.313 18.0057 146.582 18.119 145.732 18.119Z" fill="white"/>
<path fill-rule="evenodd" clip-rule="evenodd" d="M127.374 3.374C127.125 3.63467 127 3.96333 127 4.36C127 4.54425 127.025 4.71232 127.076 4.86421C127.025 5.01561 127 5.18087 127 5.36C127 5.768 127.125 6.09667 127.374 6.346C127.635 6.59533 127.952 6.72 128.326 6.72C128.677 6.72 128.966 6.58967 129.193 6.329C129.431 6.07967 129.55 5.75667 129.55 5.36C129.55 5.1806 129.524 5.0151 129.473 4.86352C129.524 4.71147 129.55 4.54363 129.55 4.36C129.55 3.96333 129.425 3.63467 129.176 3.374C128.938 3.12467 128.638 3 128.275 3C127.924 3 127.623 3.12467 127.374 3.374ZM129.473 4.86352C129.412 4.67995 129.313 4.51677 129.176 4.374C128.938 4.12467 128.638 4 128.275 4C127.924 4 127.623 4.12467 127.374 4.374C127.237 4.51695 127.138 4.68036 127.076 4.86421C127.138 5.04867 127.237 5.20926 127.374 5.346C127.635 5.59533 127.952 5.72 128.326 5.72C128.677 5.72 128.966 5.58967 129.193 5.329C129.321 5.19509 129.414 5.03993 129.473 4.86352Z" fill="#246CF9"/>
</svg>
