<svg width="15" height="14" viewBox="0 0 15 14" fill="none" xmlns="http://www.w3.org/2000/svg">
<path d="M14.1742 5.52349C14.1587 5.45387 14.1283 5.38838 14.0852 5.33146C14.0421 5.27453 13.9872 5.2275 13.9243 5.19353L12.4375 4.37175C12.3578 4.21069 12.268 4.05474 12.1688 3.90482L12.2001 2.21145C12.2006 2.14042 12.1865 2.07004 12.1586 2.0047C12.1306 1.93936 12.0894 1.88046 12.0376 1.83168C11.2973 1.16278 10.4218 0.659665 9.47004 0.356204C9.40169 0.334965 9.32959 0.328422 9.25852 0.337008C9.18744 0.345593 9.119 0.369112 9.05772 0.406009L7.60213 1.2776C7.42096 1.27137 7.24604 1.27137 7.06487 1.2776L5.60927 0.406009C5.54799 0.369112 5.47955 0.345593 5.40848 0.337008C5.3374 0.328422 5.26531 0.334965 5.19695 0.356204C4.24392 0.659896 3.36805 1.16535 2.62936 1.83791C2.57709 1.88501 2.53556 1.94271 2.50754 2.00714C2.47952 2.07158 2.46568 2.14124 2.46693 2.21145L2.49817 3.90482C2.39821 4.05424 2.31075 4.20988 2.22329 4.37175L0.736455 5.19353C0.674434 5.22785 0.620566 5.27509 0.578521 5.33203C0.536476 5.38897 0.507243 5.45428 0.492815 5.52349C0.28039 6.49576 0.28039 7.50219 0.492815 8.47445C0.508332 8.54407 0.538673 8.60956 0.581785 8.66649C0.624896 8.72341 0.679773 8.77045 0.742703 8.80441L2.22954 9.6262C2.30924 9.78726 2.39896 9.9432 2.49817 10.0931L2.46693 11.7865C2.46636 11.8575 2.48049 11.9279 2.50843 11.9932C2.53638 12.0586 2.57754 12.1175 2.62936 12.1663C3.36967 12.8352 4.24518 13.3383 5.19695 13.6417C5.26531 13.663 5.3374 13.6695 5.40848 13.6609C5.47955 13.6524 5.54799 13.6288 5.60927 13.5919L7.06487 12.7203H7.60213L9.06397 13.5919C9.13996 13.6417 9.22916 13.6678 9.32011 13.6666C9.37091 13.6645 9.42126 13.6561 9.47004 13.6417C10.4231 13.338 11.2989 12.8326 12.0376 12.16C12.0899 12.1129 12.1314 12.0552 12.1595 11.9908C12.1875 11.9264 12.2013 11.8567 12.2001 11.7865L12.1688 10.0931C12.2688 9.9437 12.3562 9.78806 12.4437 9.6262L13.9305 8.80441C13.9926 8.77009 14.0464 8.72285 14.0885 8.66591C14.1305 8.60897 14.1597 8.54367 14.1742 8.47445C14.3866 7.50219 14.3866 6.49576 14.1742 5.52349ZM7.3335 9.73826C6.78984 9.73826 6.2584 9.5776 5.80636 9.2766C5.35433 8.97561 5.00201 8.54779 4.79397 8.04725C4.58592 7.54671 4.53148 6.99593 4.63755 6.46456C4.74361 5.93319 5.0054 5.4451 5.38982 5.062C5.77425 4.67891 6.26403 4.41802 6.79724 4.31232C7.33045 4.20662 7.88313 4.26087 8.3854 4.4682C8.88768 4.67553 9.31697 5.02663 9.61901 5.47711C9.92105 5.92758 10.0823 6.45719 10.0823 6.99897C10.0823 7.72548 9.79266 8.42222 9.27717 8.93594C8.76167 9.44966 8.06251 9.73826 7.3335 9.73826Z" fill="white"/>
</svg>
