<svg width="21" height="20" viewBox="0 0 21 20"  xmlns="http://www.w3.org/2000/svg">
<path d="M18.9677 0H8.12903V3.43643H10.8387V4.811H2.03226C0.880645 4.811 0 5.70447 0 6.87285V14.433C0 15.6014 0.880645 16.4948 2.03226 16.4948H2.70968V20L6.97742 16.4948H11.5161V11.6838H18.9677C20.1194 11.6838 21 10.7904 21 9.62199V2.06186C21 0.893471 20.1194 0 18.9677 0ZM7.31613 13.677L6.97742 12.5773H4.87742L4.47097 13.677H2.84516L5.08065 7.56014H6.70645L8.94194 13.677H7.31613ZM17.6129 8.24742V9.62199C16.7323 9.62199 15.7839 9.34708 14.971 8.93471C14.1581 9.34708 13.2097 9.55326 12.2613 9.62199L12.1935 8.24742C12.6677 8.24742 13.1419 8.17869 13.6161 8.04124C13.0065 7.42268 12.6 6.66667 12.3968 5.84192H13.8194C14.0226 6.46048 14.429 6.94158 14.9032 7.35395C15.6484 6.7354 16.1226 5.84192 16.1903 4.811H12.1258V3.43643H14.1581V2.06186H15.5129V3.43643H17.7484L17.8161 4.12371C17.8839 5.56701 17.3419 7.01031 16.3258 8.04124C16.8 8.17869 17.2065 8.24742 17.6129 8.24742Z" />
<path d="M6 9L5 12.1H7L6 9Z" />
</svg>
