<svg width="24" height="25" viewBox="0 0 24 25" xmlns="http://www.w3.org/2000/svg">
<path opacity="0.4" d="M16.0755 2.03226H19.4615C20.8637 2.03226 22 3.17811 22 4.59222V8.00678C22 9.42089 20.8637 10.5667 19.4615 10.5667H16.0755C14.6732 10.5667 13.537 9.42089 13.537 8.00678V4.59222C13.537 3.17811 14.6732 2.03226 16.0755 2.03226"/>
<path fill-rule="evenodd" clip-rule="evenodd" d="M4.53852 2.03226H7.92449C9.32676 2.03226 10.463 3.17811 10.463 4.59222V8.00678C10.463 9.42089 9.32676 10.5667 7.92449 10.5667H4.53852C3.13626 10.5667 2 9.42089 2 8.00678V4.59222C2 3.17811 3.13626 2.03226 4.53852 2.03226ZM4.53852 13.4978H7.92449C9.32676 13.4978 10.463 14.6436 10.463 16.0577V19.4723C10.463 20.8854 9.32676 22.0323 7.92449 22.0323H4.53852C3.13626 22.0323 2 20.8854 2 19.4723V16.0577C2 14.6436 3.13626 13.4978 4.53852 13.4978ZM19.4615 13.4978H16.0755C14.6732 13.4978 13.537 14.6436 13.537 16.0577V19.4723C13.537 20.8854 14.6732 22.0323 16.0755 22.0323H19.4615C20.8637 22.0323 22 20.8854 22 19.4723V16.0577C22 14.6436 20.8637 13.4978 19.4615 13.4978Z"/>
</svg>
